<?xml version="1.0" encoding="utf-8"?><svg xmlns="http://www.w3.org/2000/svg" xmlns:xlink="http://www.w3.org/1999/xlink"><symbol fill="none" viewBox="0 0 16 16" id="arrow" xmlns="http://www.w3.org/2000/svg"><path d="M8 0 6.59 1.41 12.17 7H0v2h12.17l-5.58 5.59L8 16l8-8-8-8Z" fill="#5A98D0"/></symbol><symbol fill="none" viewBox="0 0 24 16" id="burger" xmlns="http://www.w3.org/2000/svg"><path d="M0 16h24v-2.667H0V16Zm0-6.667h24V6.667H0v2.666ZM0 0v2.667h24V0H0Z" fill="#356EAD"/></symbol><symbol fill="none" viewBox="0 0 48 32" id="logoDark" xmlns="http://www.w3.org/2000/svg"><circle class="cfirsl-circle" cx="16" cy="16" r="16" fill="#316099"/><circle cx="32" cy="16" r="15" fill="#fff" stroke="#316099" stroke-width="2"/><path d="M39.3 22 34.38 8h-3.42l-4.9 14h2.98l.84-2.52h5.58L36.3 22h3Zm-6.62-10.82 1.92 5.72h-3.84l1.92-5.72Z" fill="#316099"/></symbol><symbol fill="none" viewBox="0 0 48 32" id="logoLight" xmlns="http://www.w3.org/2000/svg"><circle class="dfirsl-circle" cx="16" cy="16" r="16" fill="#98C3E8"/><circle cx="32" cy="16" r="15" fill="#fff" stroke="#316099" stroke-width="2"/><path d="M39.3 22 34.38 8h-3.42l-4.9 14h2.98l.84-2.52h5.58L36.3 22h3Zm-6.62-10.82 1.92 5.72h-3.84l1.92-5.72Z" fill="#316099"/></symbol><symbol viewBox="0 0 611.99 611.99" style="enable-background:new 0 0 611.99 611.99" xml:space="preserve" fill="#356ead" id="verification-checkmark-symbol" xmlns="http://www.w3.org/2000/svg"><path d="M589.105 80.63c-30.513-31.125-79.965-31.125-110.478 0L202.422 362.344l-69.061-70.438c-30.513-31.125-79.965-31.125-110.478 0-30.513 31.125-30.513 81.572 0 112.678l124.29 126.776c30.513 31.125 79.965 31.125 110.478 0l331.453-338.033c30.515-31.125 30.515-81.572.001-112.697z"/></symbol></svg>